<svg width="233" height="139" viewBox="0 0 233 139" fill="none" xmlns="http://www.w3.org/2000/svg">
<path d="M35 39.6426H86.8555V56.9277H52.2852V65.5703H69.5703V82.8555H52.2852V108.783H35V39.6426Z" fill="white"/>
<path d="M95.498 108.783V48.2852H112.783V108.783H95.498ZM95.498 39.6426V31H112.783V39.6426H95.498Z" fill="white"/>
<path d="M121.426 108.783V31H138.711V108.783H121.426Z" fill="white"/>
<path d="M147.354 48.2852H199.209V82.8555H164.639V91.498H199.209V108.783H147.354V48.2852ZM164.639 74.2129H181.924V65.5703H164.639V74.2129Z" fill="white"/>
<path fill-rule="evenodd" clip-rule="evenodd" d="M23 27.6426H83.498V19H150.711V36.2852H211.209V120.783H83.498V68.9277H81.5703V94.8555H64.2852V120.783H23V27.6426ZM52.2852 82.8555H69.5703V65.5703H52.2852V56.9277H86.8555V39.6426H35V108.783H52.2852V82.8555ZM95.498 108.783H112.783V48.2852H95.498V108.783ZM112.783 39.6426V31H95.498V39.6426H112.783ZM121.426 108.783H138.711V31H121.426V108.783ZM199.209 91.498H164.639V82.8555H199.209V48.2852H147.354V108.783H199.209V91.498ZM164.639 74.2129H181.924V65.5703H164.639V74.2129Z" fill="#00BC7D"/>
</svg>
