<svg width="368" height="120" viewBox="0 0 368 120" fill="none" xmlns="http://www.w3.org/2000/svg">
<g clip-path="url(#clip0_19_5)">
<mask id="path-1-outside-1_19_5" maskUnits="userSpaceOnUse" x="21" y="14" width="325" height="90" fill="black">
<rect fill="white" x="21" y="14" width="325" height="90"/>
<path d="M33.6621 92V33.4062H48.3105V92H33.6621ZM70.2832 92V48.0547H55.6348V33.4062H99.5801V48.0547H84.9316V92H70.2832ZM143.525 33.4062H180.146V55.3789H187.471V92H143.525V33.4062ZM158.174 77.3516H172.822V70.0273H158.174V77.3516ZM158.174 55.3789H165.498V48.0547H158.174V55.3789ZM209.443 40.7305V77.3516H224.092V40.7305H238.74V92H194.795V40.7305H209.443ZM246.064 92V40.7305H260.713V92H246.064ZM246.064 33.4062V26.082H260.713V33.4062H246.064ZM268.037 92V26.082H282.686V92H268.037ZM333.955 92H290.01V40.7305H319.307V26.082H333.955V92ZM304.658 77.3516H319.307V55.3789H304.658V77.3516Z"/>
</mask>
<path d="M33.6621 92V33.4062H48.3105V92H33.6621ZM70.2832 92V48.0547H55.6348V33.4062H99.5801V48.0547H84.9316V92H70.2832ZM143.525 33.4062H180.146V55.3789H187.471V92H143.525V33.4062ZM158.174 77.3516H172.822V70.0273H158.174V77.3516ZM158.174 55.3789H165.498V48.0547H158.174V55.3789ZM209.443 40.7305V77.3516H224.092V40.7305H238.74V92H194.795V40.7305H209.443ZM246.064 92V40.7305H260.713V92H246.064ZM246.064 33.4062V26.082H260.713V33.4062H246.064ZM268.037 92V26.082H282.686V92H268.037ZM333.955 92H290.01V40.7305H319.307V26.082H333.955V92ZM304.658 77.3516H319.307V55.3789H304.658V77.3516Z" fill="white"/>
<path d="M33.6621 92H21.6621V104H33.6621V92ZM33.6621 33.4062V21.4062H21.6621V33.4062H33.6621ZM48.3105 33.4062H60.3105V21.4062H48.3105V33.4062ZM48.3105 92V104H60.3105V92H48.3105ZM45.6621 92V33.4062H21.6621V92H45.6621ZM33.6621 45.4062H48.3105V21.4062H33.6621V45.4062ZM36.3105 33.4062V92H60.3105V33.4062H36.3105ZM48.3105 80H33.6621V104H48.3105V80ZM70.2832 92H58.2832V104H70.2832V92ZM70.2832 48.0547H82.2832V36.0547H70.2832V48.0547ZM55.6348 48.0547H43.6348V60.0547H55.6348V48.0547ZM55.6348 33.4062V21.4062H43.6348V33.4062H55.6348ZM99.5801 33.4062H111.58V21.4062H99.5801V33.4062ZM99.5801 48.0547V60.0547H111.58V48.0547H99.5801ZM84.9316 48.0547V36.0547H72.9316V48.0547H84.9316ZM84.9316 92V104H96.9316V92H84.9316ZM82.2832 92V48.0547H58.2832V92H82.2832ZM70.2832 36.0547H55.6348V60.0547H70.2832V36.0547ZM67.6348 48.0547V33.4062H43.6348V48.0547H67.6348ZM55.6348 45.4062H99.5801V21.4062H55.6348V45.4062ZM87.5801 33.4062V48.0547H111.58V33.4062H87.5801ZM99.5801 36.0547H84.9316V60.0547H99.5801V36.0547ZM72.9316 48.0547V92H96.9316V48.0547H72.9316ZM84.9316 80H70.2832V104H84.9316V80ZM143.525 33.4062V21.4062H131.525V33.4062H143.525ZM180.146 33.4062H192.146V21.4062H180.146V33.4062ZM180.146 55.3789H168.146V67.3789H180.146V55.3789ZM187.471 55.3789H199.471V43.3789H187.471V55.3789ZM187.471 92V104H199.471V92H187.471ZM143.525 92H131.525V104H143.525V92ZM158.174 77.3516H146.174V89.3516H158.174V77.3516ZM172.822 77.3516V89.3516H184.822V77.3516H172.822ZM172.822 70.0273H184.822V58.0273H172.822V70.0273ZM158.174 70.0273V58.0273H146.174V70.0273H158.174ZM158.174 55.3789H146.174V67.3789H158.174V55.3789ZM165.498 55.3789V67.3789H177.498V55.3789H165.498ZM165.498 48.0547H177.498V36.0547H165.498V48.0547ZM158.174 48.0547V36.0547H146.174V48.0547H158.174ZM143.525 45.4062H180.146V21.4062H143.525V45.4062ZM168.146 33.4062V55.3789H192.146V33.4062H168.146ZM180.146 67.3789H187.471V43.3789H180.146V67.3789ZM175.471 55.3789V92H199.471V55.3789H175.471ZM187.471 80H143.525V104H187.471V80ZM155.525 92V33.4062H131.525V92H155.525ZM158.174 89.3516H172.822V65.3516H158.174V89.3516ZM184.822 77.3516V70.0273H160.822V77.3516H184.822ZM172.822 58.0273H158.174V82.0273H172.822V58.0273ZM146.174 70.0273V77.3516H170.174V70.0273H146.174ZM158.174 67.3789H165.498V43.3789H158.174V67.3789ZM177.498 55.3789V48.0547H153.498V55.3789H177.498ZM165.498 36.0547H158.174V60.0547H165.498V36.0547ZM146.174 48.0547V55.3789H170.174V48.0547H146.174ZM209.443 40.7305H221.443V28.7305H209.443V40.7305ZM209.443 77.3516H197.443V89.3516H209.443V77.3516ZM224.092 77.3516V89.3516H236.092V77.3516H224.092ZM224.092 40.7305V28.7305H212.092V40.7305H224.092ZM238.74 40.7305H250.74V28.7305H238.74V40.7305ZM238.74 92V104H250.74V92H238.74ZM194.795 92H182.795V104H194.795V92ZM194.795 40.7305V28.7305H182.795V40.7305H194.795ZM197.443 40.7305V77.3516H221.443V40.7305H197.443ZM209.443 89.3516H224.092V65.3516H209.443V89.3516ZM236.092 77.3516V40.7305H212.092V77.3516H236.092ZM224.092 52.7305H238.74V28.7305H224.092V52.7305ZM226.74 40.7305V92H250.74V40.7305H226.74ZM238.74 80H194.795V104H238.74V80ZM206.795 92V40.7305H182.795V92H206.795ZM194.795 52.7305H209.443V28.7305H194.795V52.7305ZM246.064 92H234.064V104H246.064V92ZM246.064 40.7305V28.7305H234.064V40.7305H246.064ZM260.713 40.7305H272.713V28.7305H260.713V40.7305ZM260.713 92V104H272.713V92H260.713ZM246.064 33.4062H234.064V45.4062H246.064V33.4062ZM246.064 26.082V14.082H234.064V26.082H246.064ZM260.713 26.082H272.713V14.082H260.713V26.082ZM260.713 33.4062V45.4062H272.713V33.4062H260.713ZM258.064 92V40.7305H234.064V92H258.064ZM246.064 52.7305H260.713V28.7305H246.064V52.7305ZM248.713 40.7305V92H272.713V40.7305H248.713ZM260.713 80H246.064V104H260.713V80ZM258.064 33.4062V26.082H234.064V33.4062H258.064ZM246.064 38.082H260.713V14.082H246.064V38.082ZM248.713 26.082V33.4062H272.713V26.082H248.713ZM260.713 21.4062H246.064V45.4062H260.713V21.4062ZM268.037 92H256.037V104H268.037V92ZM268.037 26.082V14.082H256.037V26.082H268.037ZM282.686 26.082H294.686V14.082H282.686V26.082ZM282.686 92V104H294.686V92H282.686ZM280.037 92V26.082H256.037V92H280.037ZM268.037 38.082H282.686V14.082H268.037V38.082ZM270.686 26.082V92H294.686V26.082H270.686ZM282.686 80H268.037V104H282.686V80ZM333.955 92V104H345.955V92H333.955ZM290.01 92H278.01V104H290.01V92ZM290.01 40.7305V28.7305H278.01V40.7305H290.01ZM319.307 40.7305V52.7305H331.307V40.7305H319.307ZM319.307 26.082V14.082H307.307V26.082H319.307ZM333.955 26.082H345.955V14.082H333.955V26.082ZM304.658 77.3516H292.658V89.3516H304.658V77.3516ZM319.307 77.3516V89.3516H331.307V77.3516H319.307ZM319.307 55.3789H331.307V43.3789H319.307V55.3789ZM304.658 55.3789V43.3789H292.658V55.3789H304.658ZM333.955 80H290.01V104H333.955V80ZM302.01 92V40.7305H278.01V92H302.01ZM290.01 52.7305H319.307V28.7305H290.01V52.7305ZM331.307 40.7305V26.082H307.307V40.7305H331.307ZM319.307 38.082H333.955V14.082H319.307V38.082ZM321.955 26.082V92H345.955V26.082H321.955ZM304.658 89.3516H319.307V65.3516H304.658V89.3516ZM331.307 77.3516V55.3789H307.307V77.3516H331.307ZM319.307 43.3789H304.658V67.3789H319.307V43.3789ZM292.658 55.3789V77.3516H316.658V55.3789H292.658Z" fill="black" mask="url(#path-1-outside-1_19_5)"/>
</g>
<defs>
<clipPath id="clip0_19_5">
<rect width="368" height="120" fill="white"/>
</clipPath>
</defs>
</svg>
